<mxfile host="app.diagrams.net" modified="2023-06-11T17:19:06.940Z" agent="Mozilla/5.0 (Macintosh; Intel Mac OS X 10_15_7) AppleWebKit/537.36 (KHTML, like Gecko) Chrome/114.0.0.0 Safari/537.36" etag="_tJTfTvyzTwRKQrZbPQw" version="21.3.7" type="github" pages="2">
  <diagram name="Page-1" id="2YBvvXClWsGukQMizWep">
    <mxGraphModel dx="1266" dy="754" grid="1" gridSize="10" guides="1" tooltips="1" connect="1" arrows="1" fold="1" page="1" pageScale="1" pageWidth="850" pageHeight="1100" math="0" shadow="0">
      <root>
        <mxCell id="0" />
        <mxCell id="1" parent="0" />
        <mxCell id="4xCnmBuZAuux_tQDBE8D-87" value="" style="rounded=0;whiteSpace=wrap;html=1;" vertex="1" parent="1">
          <mxGeometry x="173" width="697" height="980" as="geometry" />
        </mxCell>
        <mxCell id="aM9ryv3xv72pqoxQDRHE-1" value="&lt;font style=&quot;font-size: 18px;&quot;&gt;encryptor&lt;/font&gt;" style="shape=umlLifeline;perimeter=lifelinePerimeter;whiteSpace=wrap;html=1;container=0;dropTarget=0;collapsible=0;recursiveResize=0;outlineConnect=0;portConstraint=eastwest;newEdgeStyle={&quot;edgeStyle&quot;:&quot;elbowEdgeStyle&quot;,&quot;elbow&quot;:&quot;vertical&quot;,&quot;curved&quot;:0,&quot;rounded&quot;:0};" parent="1" vertex="1">
          <mxGeometry x="293" y="30" width="100" height="720" as="geometry" />
        </mxCell>
        <mxCell id="4xCnmBuZAuux_tQDBE8D-14" value="" style="html=1;points=[];perimeter=orthogonalPerimeter;outlineConnect=0;targetShapes=umlLifeline;portConstraint=eastwest;newEdgeStyle={&quot;edgeStyle&quot;:&quot;elbowEdgeStyle&quot;,&quot;elbow&quot;:&quot;vertical&quot;,&quot;curved&quot;:0,&quot;rounded&quot;:0};rounded=0;" vertex="1" parent="aM9ryv3xv72pqoxQDRHE-1">
          <mxGeometry x="47.5" y="50" width="3" height="610" as="geometry" />
        </mxCell>
        <mxCell id="aM9ryv3xv72pqoxQDRHE-5" value="&lt;font style=&quot;font-size: 18px;&quot;&gt;attribute authority&lt;br&gt;&lt;/font&gt;" style="shape=umlLifeline;perimeter=lifelinePerimeter;whiteSpace=wrap;html=1;container=0;dropTarget=0;collapsible=0;recursiveResize=0;outlineConnect=0;portConstraint=eastwest;newEdgeStyle={&quot;edgeStyle&quot;:&quot;elbowEdgeStyle&quot;,&quot;elbow&quot;:&quot;vertical&quot;,&quot;curved&quot;:0,&quot;rounded&quot;:0};" parent="1" vertex="1">
          <mxGeometry x="489" y="30" width="150" height="710" as="geometry" />
        </mxCell>
        <mxCell id="aM9ryv3xv72pqoxQDRHE-6" value="" style="html=1;points=[];perimeter=orthogonalPerimeter;outlineConnect=0;targetShapes=umlLifeline;portConstraint=eastwest;newEdgeStyle={&quot;edgeStyle&quot;:&quot;elbowEdgeStyle&quot;,&quot;elbow&quot;:&quot;vertical&quot;,&quot;curved&quot;:0,&quot;rounded&quot;:0};" parent="aM9ryv3xv72pqoxQDRHE-5" vertex="1">
          <mxGeometry x="73" y="56" width="3" height="604" as="geometry" />
        </mxCell>
        <mxCell id="--uOOFQUKAcR9e7xUCM7-2" value="&lt;font style=&quot;font-size: 18px;&quot;&gt;decryptor&lt;/font&gt;" style="shape=umlLifeline;perimeter=lifelinePerimeter;whiteSpace=wrap;html=1;container=0;dropTarget=0;collapsible=0;recursiveResize=0;outlineConnect=0;portConstraint=eastwest;newEdgeStyle={&quot;edgeStyle&quot;:&quot;elbowEdgeStyle&quot;,&quot;elbow&quot;:&quot;vertical&quot;,&quot;curved&quot;:0,&quot;rounded&quot;:0};" parent="1" vertex="1">
          <mxGeometry x="725" y="30" width="100" height="710" as="geometry" />
        </mxCell>
        <mxCell id="4xCnmBuZAuux_tQDBE8D-13" value="" style="html=1;points=[];perimeter=orthogonalPerimeter;outlineConnect=0;targetShapes=umlLifeline;portConstraint=eastwest;newEdgeStyle={&quot;edgeStyle&quot;:&quot;elbowEdgeStyle&quot;,&quot;elbow&quot;:&quot;vertical&quot;,&quot;curved&quot;:0,&quot;rounded&quot;:0};" vertex="1" parent="--uOOFQUKAcR9e7xUCM7-2">
          <mxGeometry x="48.5" y="55" width="3" height="605" as="geometry" />
        </mxCell>
        <mxCell id="4xCnmBuZAuux_tQDBE8D-1" value="" style="endArrow=blockThin;html=1;rounded=0;endSize=6;endFill=1;" edge="1" parent="1">
          <mxGeometry width="50" height="50" relative="1" as="geometry">
            <mxPoint x="352" y="214" as="sourcePoint" />
            <mxPoint x="550.5" y="214" as="targetPoint" />
          </mxGeometry>
        </mxCell>
        <mxCell id="4xCnmBuZAuux_tQDBE8D-3" value="" style="endArrow=blockThin;html=1;rounded=0;strokeColor=default;jumpStyle=none;jumpSize=5;endSize=6;endFill=1;" edge="1" parent="1">
          <mxGeometry width="50" height="50" relative="1" as="geometry">
            <mxPoint x="551" y="256" as="sourcePoint" />
            <mxPoint x="356" y="256" as="targetPoint" />
          </mxGeometry>
        </mxCell>
        <mxCell id="4xCnmBuZAuux_tQDBE8D-28" value="&lt;span style=&quot;text-align: left; background-color: rgb(251, 251, 251); font-size: 14px;&quot;&gt;public params&lt;br style=&quot;font-size: 14px;&quot;&gt;&lt;/span&gt;" style="edgeLabel;html=1;align=center;verticalAlign=middle;resizable=0;points=[];fontSize=14;" vertex="1" connectable="0" parent="4xCnmBuZAuux_tQDBE8D-3">
          <mxGeometry x="0.2326" y="-1" relative="1" as="geometry">
            <mxPoint x="26" y="-12" as="offset" />
          </mxGeometry>
        </mxCell>
        <mxCell id="4xCnmBuZAuux_tQDBE8D-4" value="&lt;font style=&quot;font-size: 14px;&quot;&gt;get public params&lt;/font&gt;" style="text;html=1;strokeColor=none;fillColor=none;align=center;verticalAlign=middle;whiteSpace=wrap;rounded=0;fontSize=14;" vertex="1" parent="1">
          <mxGeometry x="387" y="189" width="140" height="30" as="geometry" />
        </mxCell>
        <mxCell id="4xCnmBuZAuux_tQDBE8D-9" value="" style="endArrow=none;html=1;rounded=0;strokeColor=default;jumpStyle=none;jumpSize=5;endSize=6;endFill=0;startArrow=blockThin;startFill=1;" edge="1" parent="1">
          <mxGeometry width="50" height="50" relative="1" as="geometry">
            <mxPoint x="765" y="256" as="sourcePoint" />
            <mxPoint x="570" y="256" as="targetPoint" />
          </mxGeometry>
        </mxCell>
        <mxCell id="4xCnmBuZAuux_tQDBE8D-29" value="public params" style="edgeLabel;html=1;align=center;verticalAlign=middle;resizable=0;points=[];fontSize=14;" vertex="1" connectable="0" parent="4xCnmBuZAuux_tQDBE8D-9">
          <mxGeometry x="0.2736" y="-1" relative="1" as="geometry">
            <mxPoint x="30" y="-11" as="offset" />
          </mxGeometry>
        </mxCell>
        <mxCell id="4xCnmBuZAuux_tQDBE8D-11" value="" style="endArrow=none;html=1;rounded=0;endSize=6;startArrow=blockThin;startFill=1;endFill=0;" edge="1" parent="1">
          <mxGeometry width="50" height="50" relative="1" as="geometry">
            <mxPoint x="570" y="214" as="sourcePoint" />
            <mxPoint x="768.5" y="214" as="targetPoint" />
          </mxGeometry>
        </mxCell>
        <mxCell id="4xCnmBuZAuux_tQDBE8D-12" value="get public params" style="text;html=1;strokeColor=none;fillColor=none;align=center;verticalAlign=middle;whiteSpace=wrap;rounded=0;fontSize=14;" vertex="1" parent="1">
          <mxGeometry x="602" y="189" width="140" height="30" as="geometry" />
        </mxCell>
        <mxCell id="4xCnmBuZAuux_tQDBE8D-15" value="" style="endArrow=none;html=1;rounded=0;endSize=6;startArrow=blockThin;startFill=1;endFill=0;" edge="1" parent="1">
          <mxGeometry width="50" height="50" relative="1" as="geometry">
            <mxPoint x="567.75" y="295" as="sourcePoint" />
            <mxPoint x="766.25" y="295" as="targetPoint" />
          </mxGeometry>
        </mxCell>
        <mxCell id="4xCnmBuZAuux_tQDBE8D-32" value="get decryption key (DKEY)" style="edgeLabel;html=1;align=center;verticalAlign=middle;resizable=0;points=[];fontSize=14;" vertex="1" connectable="0" parent="4xCnmBuZAuux_tQDBE8D-15">
          <mxGeometry x="-0.0861" y="3" relative="1" as="geometry">
            <mxPoint x="14" y="-8" as="offset" />
          </mxGeometry>
        </mxCell>
        <mxCell id="4xCnmBuZAuux_tQDBE8D-17" value="" style="endArrow=none;html=1;rounded=0;endSize=6;startArrow=blockThin;startFill=1;endFill=0;" edge="1" parent="1">
          <mxGeometry width="50" height="50" relative="1" as="geometry">
            <mxPoint x="352" y="419" as="sourcePoint" />
            <mxPoint x="771.25" y="417" as="targetPoint" />
          </mxGeometry>
        </mxCell>
        <mxCell id="4xCnmBuZAuux_tQDBE8D-22" value="get content (NDN data)" style="edgeLabel;html=1;align=center;verticalAlign=middle;resizable=0;points=[];fontSize=14;" vertex="1" connectable="0" parent="4xCnmBuZAuux_tQDBE8D-17">
          <mxGeometry x="0.1341" y="-1" relative="1" as="geometry">
            <mxPoint x="-27" y="-13" as="offset" />
          </mxGeometry>
        </mxCell>
        <mxCell id="4xCnmBuZAuux_tQDBE8D-19" value="" style="endArrow=blockThin;html=1;rounded=0;endSize=6;startArrow=none;startFill=0;endFill=1;" edge="1" parent="1">
          <mxGeometry width="50" height="50" relative="1" as="geometry">
            <mxPoint x="350.38" y="453" as="sourcePoint" />
            <mxPoint x="769.63" y="451" as="targetPoint" />
          </mxGeometry>
        </mxCell>
        <mxCell id="4xCnmBuZAuux_tQDBE8D-20" value="" style="endArrow=none;html=1;rounded=0;endSize=6;startArrow=blockThin;startFill=1;endFill=0;" edge="1" parent="1">
          <mxGeometry width="50" height="50" relative="1" as="geometry">
            <mxPoint x="350.37" y="520" as="sourcePoint" />
            <mxPoint x="769.62" y="518" as="targetPoint" />
          </mxGeometry>
        </mxCell>
        <mxCell id="4xCnmBuZAuux_tQDBE8D-24" value="get Content Key (CK)" style="edgeLabel;html=1;align=center;verticalAlign=middle;resizable=0;points=[];fontSize=14;" vertex="1" connectable="0" parent="4xCnmBuZAuux_tQDBE8D-20">
          <mxGeometry x="-0.2254" y="2" relative="1" as="geometry">
            <mxPoint x="46" y="-8" as="offset" />
          </mxGeometry>
        </mxCell>
        <mxCell id="4xCnmBuZAuux_tQDBE8D-21" value="" style="endArrow=blockThin;html=1;rounded=0;endSize=6;startArrow=none;startFill=0;endFill=1;" edge="1" parent="1">
          <mxGeometry width="50" height="50" relative="1" as="geometry">
            <mxPoint x="350.38" y="560" as="sourcePoint" />
            <mxPoint x="769.63" y="558" as="targetPoint" />
          </mxGeometry>
        </mxCell>
        <mxCell id="4xCnmBuZAuux_tQDBE8D-25" value="(CK)&amp;nbsp;&lt;sub style=&quot;font-size: 14px;&quot;&gt;encrypted by KEK (attributes or policy) AND public params&lt;/sub&gt;" style="edgeLabel;html=1;align=center;verticalAlign=middle;resizable=0;points=[];fontSize=14;" vertex="1" connectable="0" parent="4xCnmBuZAuux_tQDBE8D-21">
          <mxGeometry x="-0.1635" y="-1" relative="1" as="geometry">
            <mxPoint x="31" y="-16" as="offset" />
          </mxGeometry>
        </mxCell>
        <mxCell id="4xCnmBuZAuux_tQDBE8D-23" value="(content)&amp;nbsp;&lt;sub style=&quot;border-color: var(--border-color); font-size: 14px;&quot;&gt;encrypted by CK&lt;/sub&gt;" style="edgeLabel;html=1;align=center;verticalAlign=middle;resizable=0;points=[];fontSize=14;" vertex="1" connectable="0" parent="1">
          <mxGeometry x="590.0020623395535" y="441.00464077690424" as="geometry" />
        </mxCell>
        <mxCell id="4xCnmBuZAuux_tQDBE8D-26" value="" style="endArrow=blockThin;html=1;rounded=0;endSize=6;startArrow=none;startFill=0;endFill=1;" edge="1" parent="1">
          <mxGeometry width="50" height="50" relative="1" as="geometry">
            <mxPoint x="567.75" y="342" as="sourcePoint" />
            <mxPoint x="766.25" y="342" as="targetPoint" />
          </mxGeometry>
        </mxCell>
        <mxCell id="4xCnmBuZAuux_tQDBE8D-31" value="(DKEY)&amp;nbsp;&lt;font style=&quot;font-size: 13px;&quot;&gt;&lt;sub style=&quot;&quot;&gt;enc by&amp;nbsp;&lt;/sub&gt;&lt;sub style=&quot;&quot;&gt;consumer&#39;s public key&lt;/sub&gt;&lt;/font&gt;" style="edgeLabel;html=1;align=center;verticalAlign=middle;resizable=0;points=[];fontSize=13;" vertex="1" connectable="0" parent="4xCnmBuZAuux_tQDBE8D-26">
          <mxGeometry x="-0.1969" y="-3" relative="1" as="geometry">
            <mxPoint x="24" y="-16" as="offset" />
          </mxGeometry>
        </mxCell>
        <mxCell id="4xCnmBuZAuux_tQDBE8D-35" value="" style="sketch=0;aspect=fixed;pointerEvents=1;shadow=0;dashed=0;html=1;strokeColor=#b85450;labelPosition=center;verticalLabelPosition=bottom;verticalAlign=top;align=center;fillColor=#f8cecc;shape=mxgraph.mscae.enterprise.lock;" vertex="1" parent="1">
          <mxGeometry x="572" y="314" width="10" height="12.83" as="geometry" />
        </mxCell>
        <mxCell id="4xCnmBuZAuux_tQDBE8D-39" value="" style="sketch=0;aspect=fixed;pointerEvents=1;shadow=0;dashed=0;html=1;strokeColor=#b85450;labelPosition=center;verticalLabelPosition=bottom;verticalAlign=top;align=center;fillColor=#f8cecc;shape=mxgraph.mscae.enterprise.lock;" vertex="1" parent="1">
          <mxGeometry x="503" y="427.73" width="10" height="12.83" as="geometry" />
        </mxCell>
        <mxCell id="4xCnmBuZAuux_tQDBE8D-40" value="" style="sketch=0;aspect=fixed;pointerEvents=1;shadow=0;dashed=0;html=1;strokeColor=#b85450;labelPosition=center;verticalLabelPosition=bottom;verticalAlign=top;align=center;fillColor=#f8cecc;shape=mxgraph.mscae.enterprise.lock;" vertex="1" parent="1">
          <mxGeometry x="354" y="529" width="10" height="12.83" as="geometry" />
        </mxCell>
        <mxCell id="4xCnmBuZAuux_tQDBE8D-41" value="&lt;p style=&quot;margin:0px;margin-top:4px;margin-left:5px;text-align:left;&quot;&gt;&lt;b&gt;KEY generation&lt;br&gt;&lt;/b&gt;&lt;/p&gt;" style="html=1;shape=mxgraph.sysml.package;overflow=fill;labelX=113.88;align=left;spacingLeft=5;verticalAlign=top;spacingTop=-3;" vertex="1" parent="1">
          <mxGeometry x="430" y="90" width="250" height="99" as="geometry" />
        </mxCell>
        <mxCell id="4xCnmBuZAuux_tQDBE8D-43" value="&lt;font style=&quot;font-size: 14px;&quot;&gt;- generate public key, master key, and DKEY for decryptor/s based on their access policy using public and master key&lt;/font&gt;" style="text;html=1;strokeColor=none;fillColor=none;align=center;verticalAlign=middle;whiteSpace=wrap;rounded=0;" vertex="1" parent="1">
          <mxGeometry x="437.5" y="110" width="235" height="70" as="geometry" />
        </mxCell>
        <mxCell id="4xCnmBuZAuux_tQDBE8D-47" value="&lt;font style=&quot;font-size: 14px;&quot;&gt;Decrypt DKEY using consumer&#39;s private key&lt;/font&gt;" style="rounded=0;whiteSpace=wrap;html=1;glass=0;" vertex="1" parent="1">
          <mxGeometry x="665" y="357" width="160" height="40" as="geometry" />
        </mxCell>
        <mxCell id="4xCnmBuZAuux_tQDBE8D-48" value="&lt;font style=&quot;font-size: 14px;&quot;&gt;extract CK name from content data name&lt;/font&gt;" style="rounded=0;whiteSpace=wrap;html=1;" vertex="1" parent="1">
          <mxGeometry x="675" y="461" width="150" height="40" as="geometry" />
        </mxCell>
        <mxCell id="4xCnmBuZAuux_tQDBE8D-64" value="&lt;p style=&quot;margin:0px;margin-top:4px;margin-left:5px;text-align:left;&quot;&gt;&lt;b&gt;&lt;font style=&quot;font-size: 14px;&quot;&gt;content encryption&lt;/font&gt;&lt;br&gt;&lt;/b&gt;&lt;/p&gt;" style="html=1;shape=mxgraph.sysml.package;overflow=fill;labelX=138.37;align=left;spacingLeft=5;verticalAlign=top;spacingTop=-3;" vertex="1" parent="1">
          <mxGeometry x="307" y="280" width="240" height="100" as="geometry" />
        </mxCell>
        <mxCell id="4xCnmBuZAuux_tQDBE8D-65" value="" style="endArrow=classic;html=1;rounded=0;" edge="1" parent="1">
          <mxGeometry width="50" height="50" relative="1" as="geometry">
            <mxPoint x="346" y="320" as="sourcePoint" />
            <mxPoint x="475" y="320" as="targetPoint" />
          </mxGeometry>
        </mxCell>
        <mxCell id="4xCnmBuZAuux_tQDBE8D-66" value="{KEK, public params}" style="edgeLabel;html=1;align=center;verticalAlign=middle;resizable=0;points=[];fontSize=10;" vertex="1" connectable="0" parent="4xCnmBuZAuux_tQDBE8D-65">
          <mxGeometry x="-0.0842" y="3" relative="1" as="geometry">
            <mxPoint x="90" y="-27" as="offset" />
          </mxGeometry>
        </mxCell>
        <mxCell id="4xCnmBuZAuux_tQDBE8D-67" value="&amp;nbsp; CK" style="edgeLabel;html=1;align=center;verticalAlign=middle;resizable=0;points=[];fontSize=14;" vertex="1" connectable="0" parent="4xCnmBuZAuux_tQDBE8D-65">
          <mxGeometry x="0.8566" y="-2" relative="1" as="geometry">
            <mxPoint x="21" y="-3" as="offset" />
          </mxGeometry>
        </mxCell>
        <mxCell id="4xCnmBuZAuux_tQDBE8D-77" value="&lt;font style=&quot;font-size: 13px;&quot;&gt;encrypt&lt;/font&gt;" style="edgeLabel;html=1;align=center;verticalAlign=middle;resizable=0;points=[];fontSize=13;" vertex="1" connectable="0" parent="4xCnmBuZAuux_tQDBE8D-65">
          <mxGeometry x="-0.662" relative="1" as="geometry">
            <mxPoint x="18" y="-10" as="offset" />
          </mxGeometry>
        </mxCell>
        <mxCell id="4xCnmBuZAuux_tQDBE8D-68" value="" style="endArrow=classic;html=1;rounded=0;" edge="1" parent="1">
          <mxGeometry width="50" height="50" relative="1" as="geometry">
            <mxPoint x="349" y="362" as="sourcePoint" />
            <mxPoint x="474" y="361" as="targetPoint" />
          </mxGeometry>
        </mxCell>
        <mxCell id="4xCnmBuZAuux_tQDBE8D-70" value="&lt;font style=&quot;font-size: 14px;&quot;&gt;CK&amp;nbsp;&amp;nbsp;&lt;/font&gt;" style="edgeLabel;html=1;align=center;verticalAlign=middle;resizable=0;points=[];" vertex="1" connectable="0" parent="1">
          <mxGeometry x="527.7777777777778" y="329" as="geometry">
            <mxPoint x="-189" y="-10" as="offset" />
          </mxGeometry>
        </mxCell>
        <mxCell id="4xCnmBuZAuux_tQDBE8D-71" value="content&amp;nbsp;" style="edgeLabel;html=1;align=center;verticalAlign=middle;resizable=0;points=[];fontSize=14;" vertex="1" connectable="0" parent="1">
          <mxGeometry x="543.7777777777778" y="352" as="geometry">
            <mxPoint x="-206" y="8" as="offset" />
          </mxGeometry>
        </mxCell>
        <mxCell id="4xCnmBuZAuux_tQDBE8D-72" value="&amp;nbsp; &amp;nbsp;content&amp;nbsp;" style="edgeLabel;html=1;align=center;verticalAlign=middle;resizable=0;points=[];fontSize=14;" vertex="1" connectable="0" parent="1">
          <mxGeometry x="502.99777777777786" y="362.27" as="geometry">
            <mxPoint x="-2" y="-3" as="offset" />
          </mxGeometry>
        </mxCell>
        <mxCell id="4xCnmBuZAuux_tQDBE8D-73" value="" style="sketch=0;aspect=fixed;pointerEvents=1;shadow=0;dashed=0;html=1;strokeColor=#b85450;labelPosition=center;verticalLabelPosition=bottom;verticalAlign=top;align=center;fillColor=#f8cecc;shape=mxgraph.mscae.enterprise.lock;" vertex="1" parent="1">
          <mxGeometry x="472" y="303" width="10" height="12.83" as="geometry" />
        </mxCell>
        <mxCell id="4xCnmBuZAuux_tQDBE8D-74" value="" style="sketch=0;aspect=fixed;pointerEvents=1;shadow=0;dashed=0;html=1;strokeColor=#b85450;labelPosition=center;verticalLabelPosition=bottom;verticalAlign=top;align=center;fillColor=#f8cecc;shape=mxgraph.mscae.enterprise.lock;" vertex="1" parent="1">
          <mxGeometry x="473" y="344.73" width="10" height="12.83" as="geometry" />
        </mxCell>
        <mxCell id="4xCnmBuZAuux_tQDBE8D-75" value="" style="group" vertex="1" connectable="0" parent="1">
          <mxGeometry x="572" y="574" width="254" height="100" as="geometry" />
        </mxCell>
        <mxCell id="4xCnmBuZAuux_tQDBE8D-54" value="&lt;p style=&quot;margin: 4px 0px 0px 5px; text-align: left;&quot;&gt;&lt;b style=&quot;&quot;&gt;&lt;font style=&quot;font-size: 14px;&quot;&gt;Content Decryption&lt;/font&gt;&lt;br style=&quot;font-size: 15px;&quot;&gt;&lt;/b&gt;&lt;/p&gt;" style="html=1;shape=mxgraph.sysml.package;overflow=fill;labelX=142.93;align=left;spacingLeft=5;verticalAlign=top;spacingTop=-3;fontSize=15;" vertex="1" parent="4xCnmBuZAuux_tQDBE8D-75">
          <mxGeometry width="254" height="100" as="geometry" />
        </mxCell>
        <mxCell id="4xCnmBuZAuux_tQDBE8D-55" value="" style="endArrow=classic;html=1;rounded=0;fontSize=15;" edge="1" parent="4xCnmBuZAuux_tQDBE8D-75">
          <mxGeometry width="50" height="50" relative="1" as="geometry">
            <mxPoint x="46" y="40" as="sourcePoint" />
            <mxPoint x="190" y="40" as="targetPoint" />
          </mxGeometry>
        </mxCell>
        <mxCell id="4xCnmBuZAuux_tQDBE8D-57" value="{DKEY, public params}" style="edgeLabel;html=1;align=center;verticalAlign=middle;resizable=0;points=[];fontSize=11;" vertex="1" connectable="0" parent="4xCnmBuZAuux_tQDBE8D-55">
          <mxGeometry x="-0.0842" y="3" relative="1" as="geometry">
            <mxPoint x="84" y="-21" as="offset" />
          </mxGeometry>
        </mxCell>
        <mxCell id="4xCnmBuZAuux_tQDBE8D-59" value="&lt;font style=&quot;font-size: 14px;&quot;&gt;CK&lt;/font&gt;" style="edgeLabel;html=1;align=center;verticalAlign=middle;resizable=0;points=[];fontSize=15;" vertex="1" connectable="0" parent="4xCnmBuZAuux_tQDBE8D-55">
          <mxGeometry x="0.8566" y="-2" relative="1" as="geometry">
            <mxPoint x="21" y="-3" as="offset" />
          </mxGeometry>
        </mxCell>
        <mxCell id="4xCnmBuZAuux_tQDBE8D-56" value="" style="endArrow=classic;html=1;rounded=0;fontSize=15;" edge="1" parent="4xCnmBuZAuux_tQDBE8D-75">
          <mxGeometry width="50" height="50" relative="1" as="geometry">
            <mxPoint x="49" y="82" as="sourcePoint" />
            <mxPoint x="196" y="80" as="targetPoint" />
          </mxGeometry>
        </mxCell>
        <mxCell id="4xCnmBuZAuux_tQDBE8D-60" value="&lt;font style=&quot;font-size: 14px;&quot;&gt;CK&lt;/font&gt;" style="edgeLabel;html=1;align=center;verticalAlign=middle;resizable=0;points=[];fontSize=15;" vertex="1" connectable="0" parent="4xCnmBuZAuux_tQDBE8D-75">
          <mxGeometry x="227.77777777777783" y="49" as="geometry">
            <mxPoint x="-198" y="-2" as="offset" />
          </mxGeometry>
        </mxCell>
        <mxCell id="4xCnmBuZAuux_tQDBE8D-61" value="&lt;font style=&quot;font-size: 14px;&quot;&gt;content&amp;nbsp;&lt;/font&gt;" style="edgeLabel;html=1;align=center;verticalAlign=middle;resizable=0;points=[];fontSize=15;" vertex="1" connectable="0" parent="4xCnmBuZAuux_tQDBE8D-75">
          <mxGeometry x="244.77777777777783" y="72" as="geometry">
            <mxPoint x="-206" y="8" as="offset" />
          </mxGeometry>
        </mxCell>
        <mxCell id="4xCnmBuZAuux_tQDBE8D-62" value="&lt;font style=&quot;font-size: 14px;&quot;&gt;content&amp;nbsp;&lt;/font&gt;" style="edgeLabel;html=1;align=center;verticalAlign=middle;resizable=0;points=[];fontSize=15;" vertex="1" connectable="0" parent="4xCnmBuZAuux_tQDBE8D-75">
          <mxGeometry x="223.99777777777783" y="81.27" as="geometry">
            <mxPoint x="-2" y="-3" as="offset" />
          </mxGeometry>
        </mxCell>
        <mxCell id="4xCnmBuZAuux_tQDBE8D-52" value="" style="sketch=0;aspect=fixed;pointerEvents=1;shadow=0;dashed=0;html=1;strokeColor=#b85450;labelPosition=center;verticalLabelPosition=bottom;verticalAlign=top;align=center;fillColor=#f8cecc;shape=mxgraph.mscae.enterprise.lock;fontSize=15;" vertex="1" parent="4xCnmBuZAuux_tQDBE8D-75">
          <mxGeometry x="11" y="31" width="10" height="12.83" as="geometry" />
        </mxCell>
        <mxCell id="4xCnmBuZAuux_tQDBE8D-63" value="" style="sketch=0;aspect=fixed;pointerEvents=1;shadow=0;dashed=0;html=1;strokeColor=#b85450;labelPosition=center;verticalLabelPosition=bottom;verticalAlign=top;align=center;fillColor=#f8cecc;shape=mxgraph.mscae.enterprise.lock;fontSize=15;" vertex="1" parent="4xCnmBuZAuux_tQDBE8D-75">
          <mxGeometry x="5" y="67" width="10" height="12.83" as="geometry" />
        </mxCell>
        <mxCell id="4xCnmBuZAuux_tQDBE8D-82" value="&lt;font style=&quot;font-size: 13px;&quot;&gt;decrypt&lt;/font&gt;" style="edgeLabel;html=1;align=center;verticalAlign=middle;resizable=0;points=[];fontSize=15;" vertex="1" connectable="0" parent="4xCnmBuZAuux_tQDBE8D-75">
          <mxGeometry x="91.22222222222217" y="35" as="geometry">
            <mxPoint x="1" y="-6" as="offset" />
          </mxGeometry>
        </mxCell>
        <mxCell id="4xCnmBuZAuux_tQDBE8D-83" value="&lt;font style=&quot;font-size: 13px;&quot;&gt;decrypt&lt;/font&gt;" style="edgeLabel;html=1;align=center;verticalAlign=middle;resizable=0;points=[];fontSize=15;" vertex="1" connectable="0" parent="4xCnmBuZAuux_tQDBE8D-75">
          <mxGeometry x="92.00169491525423" y="71" as="geometry" />
        </mxCell>
        <mxCell id="4xCnmBuZAuux_tQDBE8D-84" value="" style="curved=1;endArrow=classic;html=1;rounded=0;fontSize=15;" edge="1" parent="4xCnmBuZAuux_tQDBE8D-75">
          <mxGeometry width="50" height="50" relative="1" as="geometry">
            <mxPoint x="180" y="46" as="sourcePoint" />
            <mxPoint x="129" y="75" as="targetPoint" />
            <Array as="points">
              <mxPoint x="170" y="66" />
            </Array>
          </mxGeometry>
        </mxCell>
        <mxCell id="4xCnmBuZAuux_tQDBE8D-86" value="" style="endArrow=classic;html=1;rounded=0;fontSize=15;" edge="1" parent="4xCnmBuZAuux_tQDBE8D-75">
          <mxGeometry width="50" height="50" relative="1" as="geometry">
            <mxPoint x="161" y="23" as="sourcePoint" />
            <mxPoint x="123" y="36.26999999999998" as="targetPoint" />
          </mxGeometry>
        </mxCell>
        <mxCell id="4xCnmBuZAuux_tQDBE8D-79" value="" style="curved=1;endArrow=classic;html=1;rounded=0;" edge="1" parent="1">
          <mxGeometry width="50" height="50" relative="1" as="geometry">
            <mxPoint x="349" y="324" as="sourcePoint" />
            <mxPoint x="422" y="356" as="targetPoint" />
            <Array as="points">
              <mxPoint x="389" y="328" />
              <mxPoint x="412" y="340" />
            </Array>
          </mxGeometry>
        </mxCell>
        <mxCell id="4xCnmBuZAuux_tQDBE8D-80" value="encrypt" style="edgeLabel;html=1;align=center;verticalAlign=middle;resizable=0;points=[];fontSize=13;" vertex="1" connectable="0" parent="1">
          <mxGeometry x="387.00169491525423" y="351" as="geometry" />
        </mxCell>
        <mxCell id="4xCnmBuZAuux_tQDBE8D-81" value="" style="endArrow=classic;html=1;rounded=0;" edge="1" parent="1">
          <mxGeometry width="50" height="50" relative="1" as="geometry">
            <mxPoint x="463" y="299" as="sourcePoint" />
            <mxPoint x="433" y="315" as="targetPoint" />
          </mxGeometry>
        </mxCell>
      </root>
    </mxGraphModel>
  </diagram>
  <diagram id="lXy7B5VbUtj5mnllIxI4" name="Page-2">
    <mxGraphModel dx="823" dy="490" grid="1" gridSize="10" guides="1" tooltips="1" connect="1" arrows="1" fold="1" page="1" pageScale="1" pageWidth="850" pageHeight="1100" math="0" shadow="0">
      <root>
        <mxCell id="0" />
        <mxCell id="1" parent="0" />
      </root>
    </mxGraphModel>
  </diagram>
</mxfile>
